<svg id="Layer_1" data-name="Layer 1" xmlns="http://www.w3.org/2000/svg" viewBox="0 0 410.89 74.46"><defs><style>.cls-1{fill:#fefefe;}.cls-2{fill:#221f1f;}</style></defs><path class="cls-1" d="M19.14,179.92q0,37.17,0,74.34,35,0,69.9,0c.07-4.77,0-9.55,0-14.32-16.58.09-33.15-.09-49.73.09-.11-5.66,0-11.32-.05-17,15.59,0,31.18,0,46.77,0,.12-4.54,0-9.08,0-13.62-15.58.1-31.18-.09-46.76.1-.08-5.15,0-10.31,0-15.46,16.53.13,33.05,0,49.58.06V179.92Zm76.73,74.4c6.57-.12,13.14,0,19.72-.06.1-18.79-.16-37.6.12-56.38,3.82,9.44,7.74,18.84,11.69,28.23s7.61,19,12,28.23c5.58-.12,11.18-.11,16.76,0a35.17,35.17,0,0,0,1.65-3.71c5.49-14,11.06-28.05,16.55-42.09a7.08,7.08,0,0,0,.63-3.24c0-8.45,0-16.9,0-25.36-2.13,0-4.25,0-6.37,0-7.06,17.12-14.14,34.22-21,51.4-7.45-17.1-14.63-34.33-22.1-51.42q-14.82.06-29.64,0C95.77,204.69,95.68,229.51,95.87,254.32Zm85.48,0c6.82,0,13.63,0,20.45,0q0-37.17,0-74.34c-6.83,0-13.66,0-20.49,0C181.33,204.7,181.27,229.49,181.35,254.28Zm26.88-74.35c0,8.53.05,17,0,25.57C220.35,221.83,232.79,238,245,254.26c7.56,0,15.12,0,22.69,0q.06-37.19,0-74.36H248.26c0,16.65,0,33.3,0,50-12.62-16.54-24.83-33.42-37.45-50C210.15,179.91,208.87,179.92,208.23,179.93Zm66.23,0c0,4.76,0,9.51,0,14.27q24.68,0,49.37,0c0,5.11,0,10.22,0,15.33-15.52,0-31,0-46.55,0,0,4.54-.07,9.09.07,13.63,15.49-.08,31,0,46.48,0,0,5.63,0,11.27,0,16.91-16.54,0-33.07,0-49.6,0,0,4.75,0,9.52,0,14.28,23.4.07,46.8,0,70.2,0q0-37.17,0-74.34Zm76.35,0c.07,9-.15,18,.1,27q8.7,22.16,17.44,44.31c.49,1,.54,2.38,1.62,3,5.5.14,11-.08,16.53.11,2-3.7,3.31-7.76,5-11.6,6.19-14.87,12.49-29.7,18.56-44.61.39,18.7,0,37.43.17,56.13,6.58,0,13.15,0,19.73,0,.07-24.78,0-49.57,0-74.36-9.85,0-19.7,0-29.56,0C393,197,385.69,214.15,378.4,231.32q-10.56-25.71-21.09-51.42Z" transform="translate(-19.13 -179.88)"/><path class="cls-2" d="M19.14,179.92H88.91v14.26c-16.53,0-33,.07-49.58-.06,0,5.15-.06,10.31,0,15.46,15.58-.19,31.18,0,46.76-.1,0,4.54.08,9.08,0,13.62-15.59-.07-31.18,0-46.77,0,0,5.66-.06,11.32.05,17,16.58-.18,33.15,0,49.73-.09,0,4.77,0,9.55,0,14.32q-34.95,0-69.9,0Q19.12,217.09,19.14,179.92Z" transform="translate(-19.13 -179.88)"/><path class="cls-2" d="M95.87,254.32c-.19-24.81-.1-49.63-.05-74.44q14.82.09,29.64,0c7.47,17.09,14.65,34.32,22.1,51.42,6.9-17.18,14-34.28,21-51.4,2.12,0,4.24,0,6.37,0,0,8.46,0,16.91,0,25.36a7.08,7.08,0,0,1-.63,3.24c-5.49,14-11.06,28.05-16.55,42.09a35.17,35.17,0,0,1-1.65,3.71c-5.58-.1-11.18-.11-16.76,0-4.38-9.23-7.92-18.85-12-28.23s-7.87-18.79-11.69-28.23c-.28,18.78,0,37.59-.12,56.38C109,254.3,102.44,254.2,95.87,254.32Z" transform="translate(-19.13 -179.88)"/><path class="cls-2" d="M181.35,254.28c-.08-24.79,0-49.58,0-74.37,6.83,0,13.66,0,20.49,0q0,37.17,0,74.34C195,254.28,188.17,254.25,181.35,254.28Z" transform="translate(-19.13 -179.88)"/><path class="cls-2" d="M208.23,179.93c.64,0,1.92,0,2.56,0,12.62,16.55,24.83,33.43,37.45,50,0-16.65,0-33.3,0-50h19.45q0,37.18,0,74.36c-7.57,0-15.13,0-22.69,0-12.22-16.3-24.66-32.43-36.83-48.76C208.28,197,208.19,188.46,208.23,179.93Z" transform="translate(-19.13 -179.88)"/><path class="cls-2" d="M274.46,179.91h70q0,37.17,0,74.34c-23.4,0-46.8.05-70.2,0,0-4.76,0-9.53,0-14.28,16.53,0,33.06,0,49.6,0,0-5.64,0-11.28,0-16.91-15.5,0-31-.05-46.48,0-.14-4.54-.05-9.09-.07-13.63,15.52.06,31,0,46.55,0,0-5.11,0-10.22,0-15.33q-24.69,0-49.37,0C274.45,189.42,274.44,184.67,274.46,179.91Z" transform="translate(-19.13 -179.88)"/><path class="cls-2" d="M350.81,179.94l6.5,0q10.56,25.71,21.09,51.42c7.29-17.17,14.57-34.34,22.05-51.43,9.86.06,19.71,0,29.56,0,0,24.79.05,49.58,0,74.36-6.58,0-13.15,0-19.73,0-.13-18.7.22-37.43-.17-56.13C404,213,397.72,227.87,391.53,242.74c-1.72,3.84-3,7.9-5,11.6-5.51-.19-11,0-16.53-.11-1.08-.59-1.13-2-1.62-3Q359.6,229.11,350.91,207C350.66,198,350.88,188.94,350.81,179.94Z" transform="translate(-19.13 -179.88)"/></svg>